<svg width="60" height="60" viewBox="0 0 60 60" fill="none" xmlns="http://www.w3.org/2000/svg">
<g id="Calque_2" clip-path="url(#clip0_563_70)">
<path id="Vector" d="M29.9994 60C46.5682 60 59.9988 46.5682 59.9988 30.0006C59.9988 13.433 46.5682 0 29.9994 0C13.4306 0 0 13.4318 0 29.9994C0 46.567 13.4318 59.9988 29.9994 59.9988V60ZM15.2411 11.2324L23.2804 40.1467V33.3924C23.2804 29.758 26.226 26.8124 29.8604 26.8124C33.4948 26.8124 36.4404 29.758 36.4404 33.3924V40.2211L44.6004 11.1154C50.4001 15.4471 54.1442 22.2941 54.1442 30.0006C54.1442 43.0971 43.3337 53.7139 29.9982 53.7139C16.6627 53.7139 5.85455 43.0959 5.85455 29.9994C5.85455 22.3624 9.53163 15.5691 15.2423 11.2312L15.2411 11.2324Z" fill="#D0C3AE"/>
<path id="Vector_2" d="M29.8763 37.0222C30.7011 37.0222 31.3698 36.3535 31.3698 35.5287C31.3698 34.7038 30.7011 34.0352 29.8763 34.0352C29.0514 34.0352 28.3828 34.7038 28.3828 35.5287C28.3828 36.3535 29.0514 37.0222 29.8763 37.0222Z" fill="#D0C3AE"/>
</g>
<defs>
<clipPath id="clip0_563_70">
<rect width="60" height="60" fill="white"/>
</clipPath>
</defs>
</svg>
