{
	"asset":{
		"version":"2.0",
		"generator":"Created using the official Cinema 4D glTF Exporter 1.000x284978"
	},
	"scenes":[{
		"nodes":[0,
		2,
		10]
	}],
	"nodes":[{
		"name":"BOTTLE LV ",
		"translation":[-5.10772180557251,
		46.30055236816406,
		-24.37751007080078],
		"rotation":[0.39029407501220705,
		-0.7815634608268738,
		0.016394134610891343,
		0.4863746762275696],
		"scale":[1.0,
		1.0,
		1.0],
		"children":[1]
	},
	{
		"name":"Top_01",
		"translation":[7.767614841461182,
		-5.120599746704102,
		-0.14772480726242066],
		"rotation":[0.23381847143173219,
		-0.8092706203460693,
		0.20072543621063233,
		-0.5001192688941956],
		"scale":[1.0,
		1.0,
		1.0],
		"mesh":0
	},
	{
		"name":"BAG LV ",
		"translation":[-109.94505310058594,
		-565.7042846679688,
		1309.2744140625],
		"rotation":[-0.02656492404639721,
		0.6224495768547058,
		0.28877437114715578,
		0.7269526720046997],
		"scale":[1.0,
		1.0,
		1.0],
		"children":[3,
		4,
		5,
		6,
		7,
		8,
		9]
	},
	{
		"name":"Leather5",
		"translation":[5.9964213371276859,
		-3.3014044761657717,
		-14.973787307739258],
		"rotation":[0.7071067690849304,
		0.0,
		0.0,
		-0.7071067690849304],
		"scale":[1.0,
		1.0,
		1.0],
		"mesh":1
	},
	{
		"name":"Metal",
		"translation":[14.868582725524903,
		0.13963338732719422,
		-16.925006866455079],
		"rotation":[0.7071067690849304,
		0.0,
		0.0,
		-0.7071067690849304],
		"scale":[1.0,
		1.0,
		1.0],
		"mesh":2
	},
	{
		"name":"Leather4",
		"translation":[5.9964213371276859,
		-3.3014044761657717,
		-14.973787307739258],
		"rotation":[0.7071067690849304,
		0.0,
		0.0,
		-0.7071067690849304],
		"scale":[1.0,
		1.0,
		1.0],
		"mesh":3
	},
	{
		"name":"Leather2",
		"translation":[-35.47519302368164,
		-2.6495699882507326,
		9.104509353637696],
		"rotation":[0.7071067690849304,
		0.0,
		0.0,
		-0.7071067690849304],
		"scale":[1.0,
		1.0,
		1.0],
		"mesh":4
	},
	{
		"name":"Lock",
		"translation":[7.822911262512207,
		11.622682571411133,
		23.392812728881837],
		"rotation":[-8.146034247147327e-8,
		0.0,
		0.0,
		-1.0],
		"scale":[8.549643516540528,
		7.8488054275512699,
		8.549642562866211],
		"mesh":5
	},
	{
		"name":"Leather3",
		"translation":[-14.077728271484375,
		-2.6495699882507326,
		31.300264358520509],
		"rotation":[0.7071067690849304,
		0.0,
		0.0,
		-0.7071067690849304],
		"scale":[1.0,
		1.0,
		1.0],
		"mesh":6
	},
	{
		"name":"Metal3",
		"translation":[14.868582725524903,
		0.13963338732719422,
		-16.925006866455079],
		"rotation":[0.7071067690849304,
		0.0,
		0.0,
		-0.7071067690849304],
		"scale":[1.0,
		1.0,
		1.0],
		"mesh":7
	},
	{
		"name":"Camera",
		"translation":[51.6267204284668,
		89.004638671875,
		57.990989685058597],
		"rotation":[0.15606123208999635,
		-0.3771842122077942,
		-0.06464267522096634,
		-0.9106032252311707],
		"scale":[1.0,
		1.0,
		1.0],
		"camera":0
	}],
	"materials":[{
		"pbrMetallicRoughness":{
			"baseColorFactor":[0.030069694244604266,
			0.029855900611401567,
			0.029855900611401567,
			1.0],
			"metallicFactor":0.01,
			"roughnessFactor":0.91
		},
		"emissiveFactor":[0.0,
		0.0,
		0.0],
		"alphaMode":"OPAQUE",
		"doubleSided":true,
		"name":"Mat"
	}],
	"meshes":[{
		"name":"Top_01",
		"primitives":[{
			"attributes":{
				"POSITION":1,
				"NORMAL":2,
				"TEXCOORD_0":3
			},
			"indices":0,
			"material":0
		}]
	},
	{
		"name":"Leather5",
		"primitives":[{
			"attributes":{
				"POSITION":5,
				"NORMAL":6,
				"TEXCOORD_0":7
			},
			"indices":4,
			"material":0
		}]
	},
	{
		"name":"Metal",
		"primitives":[{
			"attributes":{
				"POSITION":9,
				"NORMAL":10,
				"TEXCOORD_0":11
			},
			"indices":8,
			"material":0
		}]
	},
	{
		"name":"Leather4",
		"primitives":[{
			"attributes":{
				"POSITION":13,
				"NORMAL":14,
				"TEXCOORD_0":15
			},
			"indices":12,
			"material":0
		}]
	},
	{
		"name":"Leather2",
		"primitives":[{
			"attributes":{
				"POSITION":17,
				"NORMAL":18,
				"TEXCOORD_0":19
			},
			"indices":16,
			"material":0
		}]
	},
	{
		"name":"Lock",
		"primitives":[{
			"attributes":{
				"POSITION":21,
				"NORMAL":22,
				"TEXCOORD_0":23
			},
			"indices":20,
			"material":0
		}]
	},
	{
		"name":"Leather3",
		"primitives":[{
			"attributes":{
				"POSITION":25,
				"NORMAL":26,
				"TEXCOORD_0":27
			},
			"indices":24,
			"material":0
		}]
	},
	{
		"name":"Metal3",
		"primitives":[{
			"attributes":{
				"POSITION":29,
				"NORMAL":30,
				"TEXCOORD_0":31
			},
			"indices":28,
			"material":0
		}]
	}],
	"cameras":[{
		"type":"perspective",
		"perspective":{
			"znear":0.009999999776482582,
			"zfar":10000000000.0,
			"aspectRatio":1.7777777910232545,
			"yfov":0.5483348965644836
		}
	}],
	"accessors":[{
		"bufferView":0,
		"byteOffset":0,
		"count":27264,
		"type":"SCALAR",
		"componentType":5123,
		"min":[0],
		"max":[4995]
	},
	{
		"bufferView":1,
		"byteOffset":0,
		"count":4996,
		"type":"VEC3",
		"componentType":5126,
		"min":[-32.17527389526367,
		-0.06574441492557526,
		-12.111262321472168],
		"max":[3.5328996181488039,
		41.651615142822269,
		8.680410385131836]
	},
	{
		"bufferView":1,
		"byteOffset":12,
		"count":4996,
		"type":"VEC3",
		"componentType":5126,
		"min":[-0.9980948567390442,
		-0.9992073178291321,
		-0.9974579215049744],
		"max":[0.9996150135993958,
		0.9993014335632324,
		0.9974883198738098]
	},
	{
		"bufferView":1,
		"byteOffset":24,
		"count":4996,
		"type":"VEC2",
		"componentType":5126,
		"min":[0.00045780724030919373,
		0.0004999637603759766],
		"max":[0.9980059266090393,
		0.9994999170303345]
	},
	{
		"bufferView":2,
		"byteOffset":0,
		"count":60000,
		"type":"SCALAR",
		"componentType":5123,
		"min":[0],
		"max":[12383]
	},
	{
		"bufferView":3,
		"byteOffset":0,
		"count":12384,
		"type":"VEC3",
		"componentType":5126,
		"min":[-0.8866243958473206,
		-44.274559020996097,
		10.453274726867676],
		"max":[13.675907135009766,
		-35.342777252197269,
		21.77398681640625]
	},
	{
		"bufferView":3,
		"byteOffset":12,
		"count":12384,
		"type":"VEC3",
		"componentType":5126,
		"min":[-1.0,
		-0.9999684691429138,
		-0.9999998807907105],
		"max":[1.0,
		0.999988853931427,
		0.9999998211860657]
	},
	{
		"bufferView":3,
		"byteOffset":24,
		"count":12384,
		"type":"VEC2",
		"componentType":5126,
		"min":[0.001953125,
		0.001953125],
		"max":[0.9967217445373535,
		0.998046875]
	},
	{
		"bufferView":4,
		"byteOffset":0,
		"count":47694,
		"type":"SCALAR",
		"componentType":5123,
		"min":[0],
		"max":[9283]
	},
	{
		"bufferView":5,
		"byteOffset":0,
		"count":9284,
		"type":"VEC3",
		"componentType":5126,
		"min":[-19.895179748535158,
		-43.40321731567383,
		9.623830795288086],
		"max":[8.497607231140137,
		-36.44044876098633,
		18.323720932006837]
	},
	{
		"bufferView":5,
		"byteOffset":12,
		"count":9284,
		"type":"VEC3",
		"componentType":5126,
		"min":[-0.9999991655349731,
		-1.0,
		-0.9999951124191284],
		"max":[0.9999991655349731,
		1.0,
		1.0]
	},
	{
		"bufferView":5,
		"byteOffset":24,
		"count":9284,
		"type":"VEC2",
		"componentType":5126,
		"min":[0.001953125,
		0.013633668422698975],
		"max":[0.998046875,
		0.998046875]
	},
	{
		"bufferView":6,
		"byteOffset":0,
		"count":36468,
		"type":"SCALAR",
		"componentType":5123,
		"min":[0],
		"max":[7743]
	},
	{
		"bufferView":7,
		"byteOffset":0,
		"count":7744,
		"type":"VEC3",
		"componentType":5126,
		"min":[-11.271296501159668,
		-44.85087966918945,
		0.6399818062782288],
		"max":[17.599348068237306,
		-30.021169662475587,
		14.885497093200684]
	},
	{
		"bufferView":7,
		"byteOffset":12,
		"count":7744,
		"type":"VEC3",
		"componentType":5126,
		"min":[-0.9998146891593933,
		-1.0,
		-0.9997464418411255],
		"max":[0.9998147487640381,
		1.0,
		0.999859094619751]
	},
	{
		"bufferView":7,
		"byteOffset":24,
		"count":7744,
		"type":"VEC2",
		"componentType":5126,
		"min":[0.001953125,
		0.001953125],
		"max":[0.6277469992637634,
		0.998046875]
	},
	{
		"bufferView":8,
		"byteOffset":0,
		"count":44904,
		"type":"SCALAR",
		"componentType":5123,
		"min":[0],
		"max":[9491]
	},
	{
		"bufferView":9,
		"byteOffset":0,
		"count":9492,
		"type":"VEC3",
		"componentType":5126,
		"min":[28.777109146118165,
		-21.81124496459961,
		2.917724370956421],
		"max":[60.842529296875,
		-4.834938049316406,
		14.649499893188477]
	},
	{
		"bufferView":9,
		"byteOffset":12,
		"count":9492,
		"type":"VEC3",
		"componentType":5126,
		"min":[-0.9998977780342102,
		-0.9999732375144959,
		-0.9999962449073792],
		"max":[0.9999774694442749,
		0.9997661709785461,
		0.9996210932731628]
	},
	{
		"bufferView":9,
		"byteOffset":24,
		"count":9492,
		"type":"VEC2",
		"componentType":5126,
		"min":[0.001953125,
		0.001953125],
		"max":[0.8256911039352417,
		0.998046875]
	},
	{
		"bufferView":10,
		"byteOffset":0,
		"count":1152,
		"type":"SCALAR",
		"componentType":5123,
		"min":[0],
		"max":[247]
	},
	{
		"bufferView":11,
		"byteOffset":0,
		"count":248,
		"type":"VEC3",
		"componentType":5126,
		"min":[0.10161495208740235,
		-0.026691678911447526,
		-0.06678859889507294],
		"max":[0.2201419174671173,
		0.026692140847444536,
		0.05020884796977043]
	},
	{
		"bufferView":11,
		"byteOffset":12,
		"count":248,
		"type":"VEC3",
		"componentType":5126,
		"min":[-0.9954346418380737,
		-0.996871829032898,
		-1.0],
		"max":[0.9954344630241394,
		0.9968718886375427,
		1.0]
	},
	{
		"bufferView":11,
		"byteOffset":24,
		"count":248,
		"type":"VEC2",
		"componentType":5126,
		"min":[0.019999999552965165,
		0.4086618423461914],
		"max":[0.9799999594688416,
		0.9800000190734863]
	},
	{
		"bufferView":12,
		"byteOffset":0,
		"count":12768,
		"type":"SCALAR",
		"componentType":5123,
		"min":[0],
		"max":[2344]
	},
	{
		"bufferView":13,
		"byteOffset":0,
		"count":2345,
		"type":"VEC3",
		"componentType":5126,
		"min":[8.898441314697266,
		1.470908522605896,
		0.05467544123530388],
		"max":[37.596595764160159,
		16.19532012939453,
		14.154778480529786]
	},
	{
		"bufferView":13,
		"byteOffset":12,
		"count":2345,
		"type":"VEC3",
		"componentType":5126,
		"min":[-1.0,
		-0.9999712109565735,
		-1.0],
		"max":[1.0,
		0.9999712705612183,
		1.0]
	},
	{
		"bufferView":13,
		"byteOffset":24,
		"count":2345,
		"type":"VEC2",
		"componentType":5126,
		"min":[0.001953125,
		0.020520806312561036],
		"max":[0.998046875,
		0.998046875]
	},
	{
		"bufferView":14,
		"byteOffset":0,
		"count":40944,
		"type":"SCALAR",
		"componentType":5123,
		"min":[0],
		"max":[7632]
	},
	{
		"bufferView":15,
		"byteOffset":0,
		"count":7633,
		"type":"VEC3",
		"componentType":5126,
		"min":[-21.618619918823243,
		-41.70718765258789,
		6.755802154541016],
		"max":[10.12122917175293,
		-32.79816436767578,
		10.75347900390625]
	},
	{
		"bufferView":15,
		"byteOffset":12,
		"count":7633,
		"type":"VEC3",
		"componentType":5126,
		"min":[-0.9999778270721436,
		-0.9996963143348694,
		-0.9999998211860657],
		"max":[0.9999778270721436,
		0.9997511506080627,
		0.9999939799308777]
	},
	{
		"bufferView":15,
		"byteOffset":24,
		"count":7633,
		"type":"VEC2",
		"componentType":5126,
		"min":[0.001953125,
		0.020527005195617677],
		"max":[0.9524534940719605,
		0.998046875]
	}],
	"bufferViews":[{
		"buffer":0,
		"byteOffset":0,
		"byteLength":54528,
		"target":34963
	},
	{
		"buffer":0,
		"byteOffset":54528,
		"byteLength":159872,
		"target":34962,
		"byteStride":32
	},
	{
		"buffer":1,
		"byteOffset":0,
		"byteLength":120000,
		"target":34963
	},
	{
		"buffer":1,
		"byteOffset":120000,
		"byteLength":396288,
		"target":34962,
		"byteStride":32
	},
	{
		"buffer":2,
		"byteOffset":0,
		"byteLength":95388,
		"target":34963
	},
	{
		"buffer":2,
		"byteOffset":95388,
		"byteLength":297088,
		"target":34962,
		"byteStride":32
	},
	{
		"buffer":3,
		"byteOffset":0,
		"byteLength":72936,
		"target":34963
	},
	{
		"buffer":3,
		"byteOffset":72936,
		"byteLength":247808,
		"target":34962,
		"byteStride":32
	},
	{
		"buffer":4,
		"byteOffset":0,
		"byteLength":89808,
		"target":34963
	},
	{
		"buffer":4,
		"byteOffset":89808,
		"byteLength":303744,
		"target":34962,
		"byteStride":32
	},
	{
		"buffer":5,
		"byteOffset":0,
		"byteLength":2304,
		"target":34963
	},
	{
		"buffer":5,
		"byteOffset":2304,
		"byteLength":7936,
		"target":34962,
		"byteStride":32
	},
	{
		"buffer":6,
		"byteOffset":0,
		"byteLength":25536,
		"target":34963
	},
	{
		"buffer":6,
		"byteOffset":25536,
		"byteLength":75040,
		"target":34962,
		"byteStride":32
	},
	{
		"buffer":7,
		"byteOffset":0,
		"byteLength":81888,
		"target":34963
	},
	{
		"buffer":7,
		"byteOffset":81888,
		"byteLength":244256,
		"target":34962,
		"byteStride":32
	}],
	"buffers":[{
		"uri":"data:application/octet-stream;base64,",
		"byteLength":214400
	},
	{
		"uri":"data:application/octet-stream;base64,",
		"byteLength":516288
	},
	{
		"uri":"data:application/octet-stream;base64,",
		"byteLength":392476
	},
	{
		"uri":"data:application/octet-stream;base64,",
		"byteLength":320744
	},
	{
		"uri":"data:application/octet-stream;base64,",
		"byteLength":393552
	},
	{
		"uri":"data:application/octet-stream;base64,",
		"byteLength":10240
	},
	{
		"uri":"data:application/octet-stream;base64,",
		"byteLength":100576
	},
	{
		"uri":"data:application/octet-stream;base64,",
		"byteLength":326144
	}]
}