{
	"asset":{
		"version":"2.0",
		"generator":"Created using the official Cinema 4D glTF Exporter 1.000x284978"
	},
	"scenes":[{
		"nodes":[0,
		1]
	}],
	"nodes":[{
		"name":"Camera",
		"translation":[-8.1272554397583,
		111.8826904296875,
		485.3802185058594],
		"rotation":[0.015321565791964531,
		-0.01661529205739498,
		0.00025463735801167786,
		0.9997445344924927],
		"scale":[1.0,
		1.0,
		1.0],
		"camera":0
	},
	{
		"name":"Earth",
		"translation":[6.093991985028122e-38,
		122.01722717285156,
		7.471399800923484e-15],
		"rotation":[0.1332254260778427,
		0.6874232292175293,
		0.706478476524353,
		-0.10290051996707916],
		"scale":[100.0,
		100.0,
		100.0],
		"mesh":0
	}],
	"materials":[{
		"pbrMetallicRoughness":{
			"baseColorTexture":{
				"index":0
			},
			"baseColorFactor":[0.800000011920929,
			0.800000011920929,
			0.800000011920929,
			1.0],
			"metallicFactor":0.0,
			"roughnessFactor":0.88
		},
		"emissiveFactor":[0.0,
		0.0,
		0.0],
		"alphaMode":"OPAQUE",
		"doubleSided":true,
		"name":"Earth.1"
	}],
	"meshes":[{
		"name":"Earth",
		"primitives":[{
			"attributes":{
				"POSITION":1,
				"NORMAL":2,
				"TEXCOORD_0":3
			},
			"indices":0,
			"material":0
		}]
	}],
	"textures":[{
		"sampler":0,
		"source":0
	}],
	"cameras":[{
		"type":"perspective",
		"perspective":{
			"znear":0.009999999776482582,
			"zfar":10000000000.0,
			"aspectRatio":1.7777777910232545,
			"yfov":0.5483348965644836
		}
	}],
	"accessors":[{
		"bufferView":0,
		"byteOffset":0,
		"count":48384,
		"type":"SCALAR",
		"componentType":5123,
		"min":[0],
		"max":[8382]
	},
	{
		"bufferView":1,
		"byteOffset":0,
		"count":8383,
		"type":"VEC3",
		"componentType":5126,
		"min":[-0.9999979138374329,
		-0.9999983310699463,
		-1.0],
		"max":[0.9999979138374329,
		0.9999983310699463,
		1.0]
	},
	{
		"bufferView":1,
		"byteOffset":12,
		"count":8383,
		"type":"VEC3",
		"componentType":5126,
		"min":[-1.0,
		-1.0,
		-1.0],
		"max":[1.0,
		0.9999999403953552,
		0.9999999403953552]
	},
	{
		"bufferView":1,
		"byteOffset":24,
		"count":8383,
		"type":"VEC2",
		"componentType":5126,
		"min":[0.0,
		0.0],
		"max":[1.0,
		1.0]
	}],
	"bufferViews":[{
		"buffer":0,
		"byteOffset":0,
		"byteLength":96768,
		"target":34963
	},
	{
		"buffer":0,
		"byteOffset":96768,
		"byteLength":268256,
		"target":34962,
		"byteStride":32
	}],
	"buffers":[{
		"uri":"data:application/octet-stream;base64,",
		"byteLength":365024
	}],
	"images":[{
		"uri":"data:image/jpeg;base64,"
	}],
	"samplers":[{
		"magFilter":9729,
		"minFilter":9729,
		"wrapS":10497,
		"wrapT":10497
	}]
}