<svg width="160" height="160" viewBox="0 0 160 160" fill="none" xmlns="http://www.w3.org/2000/svg">
<path d="M147.297 90.458L148.072 84.1991L150.729 84.5284L149.953 90.7873L147.297 90.458Z" fill="#D0C3AE"/>
<path d="M143.756 118.678C142.416 118.009 141.391 117.015 141.016 115.534C140.528 113.667 141.106 112.358 141.927 110.714L142.516 109.537L136.793 106.678L138.182 103.898L153.199 111.402L151.222 115.359C150.401 117.003 149.701 118.251 147.915 118.982C146.505 119.571 145.095 119.348 143.756 118.678ZM145.145 115.898C146.971 116.811 147.996 115.319 148.716 113.878L149.213 112.884L145.113 110.835L144.667 111.728C143.947 113.169 143.298 114.975 145.145 115.898Z" fill="#D0C3AE"/>
<path d="M125.174 123.841L127.532 120.904L135.322 121.455L135.35 121.419L130.343 117.401L132.289 114.977L145.381 125.485L142.158 129.501C141.235 130.651 140.199 131.652 138.717 131.976C137.158 132.324 135.553 131.967 134.315 130.973C133.2 130.079 132.331 128.625 132.191 127.204C132.094 126.02 132.361 125.216 132.859 124.161L125.174 123.841ZM136.066 128.393C137.41 129.472 138.928 128.887 139.922 127.648L141.171 126.091L137.173 122.882L135.923 124.439C134.886 125.731 134.686 127.286 136.066 128.393Z" fill="#D0C3AE"/>
<path d="M117.016 130.717L123.953 124.939L134.698 137.838L127.76 143.617L125.902 141.385L130.451 137.596L127.823 134.441L123.465 138.071L121.607 135.839L125.965 132.209L123.424 129.159L118.874 132.949L117.016 130.717Z" fill="#D0C3AE"/>
<path d="M108.027 141.818C106.513 139.025 107.51 136.008 110.262 134.516C112.875 133.1 115.987 133.89 117.523 136.438L114.651 137.995C113.946 136.932 112.803 136.442 111.626 137.08C110.569 137.653 109.992 138.921 110.597 140.037C111.505 141.713 113.194 141.21 114.761 141.006C115.317 140.937 115.842 140.859 116.4 140.84C118.317 140.807 119.655 141.656 120.574 143.352C121.893 145.785 120.94 148.598 118.527 149.906C116.133 151.203 113.295 150.394 111.878 148.065L114.67 146.552C115.29 147.506 116.186 147.872 117.223 147.31C118.08 146.845 118.403 145.87 117.928 144.992C117.16 143.576 115.653 144.032 114.361 144.268C111.727 144.741 109.432 144.411 108.027 141.818Z" fill="#D0C3AE"/>
<path d="M95.3807 146.176C94.4346 143.145 95.9947 140.376 98.9833 139.444C101.82 138.558 104.721 139.934 105.737 142.731L102.618 143.704C102.131 142.525 101.104 141.824 99.8267 142.222C98.6789 142.581 97.8678 143.713 98.2463 144.926C98.814 146.745 100.568 146.578 102.145 146.68C102.704 146.719 103.234 146.744 103.785 146.833C105.673 147.171 106.821 148.262 107.396 150.103C108.22 152.745 106.743 155.321 104.122 156.139C101.523 156.95 98.8944 155.608 97.9535 153.05L100.985 152.104C101.41 153.159 102.218 153.692 103.344 153.34C104.275 153.05 104.78 152.155 104.483 151.202C104.003 149.665 102.436 149.821 101.123 149.803C98.4474 149.759 96.2593 148.992 95.3807 146.176Z" fill="#D0C3AE"/>
<path d="M70.5572 147.528L76.8371 148.111L76.5897 150.777L70.3098 150.194L70.5572 147.528Z" fill="#D0C3AE"/>
<path d="M38.4416 142.524C39.1502 141.205 40.1741 140.21 41.6658 139.878C43.5461 139.446 44.8373 140.063 46.4561 140.933L47.6152 141.555L50.6431 135.92L53.381 137.391L45.4355 152.179L41.5385 150.086C39.9198 149.216 38.6929 148.479 38.0152 146.673C37.4684 145.246 37.7329 143.843 38.4416 142.524ZM41.1795 143.995C40.2131 145.794 41.6738 146.862 43.0927 147.624L44.072 148.15L46.2409 144.113L45.3615 143.641C43.9426 142.879 42.1565 142.177 41.1795 143.995Z" fill="#D0C3AE"/>
<path d="M33.8951 123.902L36.7711 126.333L36.022 134.107L36.0567 134.136L40.2015 129.233L42.5751 131.239L31.737 144.06L27.8042 140.736C26.678 139.784 25.7037 138.722 25.4179 137.233C25.1094 135.665 25.507 134.07 26.5323 132.858C27.455 131.766 28.9306 130.934 30.3547 130.831C31.5403 130.764 32.3371 131.051 33.3791 131.575L33.8951 123.902ZM29.0669 134.673C27.9538 135.99 28.5007 137.522 29.7135 138.547L31.2381 139.836L34.5481 135.921L33.0235 134.632C31.7588 133.563 30.2093 133.322 29.0669 134.673Z" fill="#D0C3AE"/>
<path d="M27.234 115.531L32.8082 122.634L19.6014 132.998L14.0272 125.895L16.3117 124.102L19.9671 128.76L23.1974 126.225L19.696 121.763L21.9805 119.971L25.4818 124.432L28.6051 121.981L24.9496 117.323L27.234 115.531Z" fill="#D0C3AE"/>
<path d="M16.4021 106.31C19.2326 104.869 22.2232 105.944 23.6433 108.734C24.9914 111.382 24.1207 114.473 21.5339 115.942L20.052 113.031C21.1328 112.354 21.6523 111.224 21.0451 110.031C20.4997 108.959 19.2474 108.349 18.1152 108.926C16.4169 109.79 16.8755 111.491 17.0389 113.063C17.0937 113.62 17.1583 114.148 17.1623 114.706C17.1456 116.623 16.2622 117.938 14.5436 118.813C12.077 120.069 9.28972 119.044 8.04453 116.597C6.80964 114.171 7.69244 111.354 10.0569 109.998L11.4976 112.829C10.5278 113.424 10.1385 114.309 10.6736 115.361C11.1161 116.23 12.0825 116.578 12.9721 116.126C14.4076 115.395 13.9908 113.876 13.7888 112.579C13.3843 109.934 13.7737 107.648 16.4021 106.31Z" fill="#D0C3AE"/>
<path d="M12.4099 93.6524C15.4658 92.7868 18.1919 94.4198 19.045 97.432C19.8549 100.291 18.4025 103.155 15.5801 104.096L14.6898 100.953C15.8813 100.497 16.6097 99.4893 16.2449 98.2015C15.9172 97.0446 14.8067 96.2038 13.5843 96.5501C11.7508 97.0694 11.8714 98.8272 11.7276 100.401C11.6733 100.958 11.6347 101.488 11.5306 102.036C11.143 103.914 10.0218 105.034 8.1664 105.559C5.50342 106.313 2.96723 104.768 2.21915 102.127C1.47726 99.5077 2.88861 96.9151 5.47084 96.0422L6.33638 99.0981C5.26973 99.4946 4.71634 100.288 5.03783 101.423C5.30368 102.362 6.18436 102.89 7.14478 102.618C8.69454 102.179 8.57972 100.608 8.63258 99.2966C8.74777 96.6231 9.5723 94.4561 12.4099 93.6524Z" fill="#D0C3AE"/>
<path d="M11.6772 68.7163L10.9255 74.9782L8.26756 74.6591L9.01927 68.3972L11.6772 68.7163Z" fill="#D0C3AE"/>
<path d="M17.4486 36.8624C18.7489 37.6049 19.7171 38.6542 20.0102 40.1539C20.3935 42.0448 19.7438 43.3197 18.8326 44.9154L18.1801 46.058L23.7357 49.2305L22.1945 51.9295L7.61603 43.6046L9.80973 39.763C10.721 38.1673 11.4888 36.9599 13.312 36.329C14.7526 35.8193 16.1484 36.12 17.4486 36.8624ZM15.9074 39.5614C14.1343 38.5489 13.0289 39.9815 12.2302 41.3803L11.6789 42.3456L15.6585 44.6181L16.1534 43.7512C16.9522 42.3525 17.7001 40.5852 15.9074 39.5614Z" fill="#D0C3AE"/>
<path d="M36.0473 32.9061L33.5436 35.7193L25.7915 34.7725L25.7614 34.8064L30.5573 39.0747L28.491 41.3964L15.9504 30.2355L19.3741 26.3886C20.3544 25.287 21.4402 24.34 22.9362 24.0923C24.5114 23.8238 26.0956 24.2619 27.2819 25.3176C28.3495 26.2678 29.1437 27.7642 29.2106 29.1904C29.2476 30.3774 28.94 31.1666 28.3893 32.1949L36.0473 32.9061ZM25.402 27.8053C24.1141 26.659 22.5689 27.1667 21.5131 28.353L20.1859 29.8443L24.0158 33.2529L25.3431 31.7616C26.4441 30.5245 26.7239 28.9817 25.402 27.8053Z" fill="#D0C3AE"/>
<path d="M44.6825 26.32L37.4394 31.711L27.4158 18.244L34.6589 12.8529L36.3927 15.1824L31.6429 18.7177L34.0946 22.0117L38.6443 18.6253L40.3781 20.9548L35.8284 24.3411L38.1988 27.5259L42.9487 23.9905L44.6825 26.32Z" fill="#D0C3AE"/>
<path d="M54.1236 15.7316C55.4903 18.5986 54.3387 21.5603 51.5126 22.9075C48.8299 24.1864 45.763 23.2357 44.3613 20.6116L47.3102 19.2058C47.9592 20.3038 49.0753 20.8525 50.2835 20.2765C51.3689 19.7591 52.0111 18.523 51.4644 17.3763C50.6444 15.6561 48.9318 16.0703 47.3567 16.1929C46.7978 16.2332 46.2692 16.2841 45.7113 16.2736C43.7947 16.2071 42.5029 15.2898 41.6731 13.5492C40.4821 11.0508 41.5792 8.29103 44.0571 7.10979C46.5145 5.93831 49.3074 6.89396 50.6017 9.2928L47.7347 10.6595C47.1647 9.67465 46.2896 9.26244 45.2247 9.77008C44.3442 10.1899 43.971 11.1469 44.4005 12.0479C45.0937 13.5019 46.6229 13.1247 47.9249 12.9564C50.5797 12.6208 52.8545 13.0694 54.1236 15.7316Z" fill="#D0C3AE"/>
<path d="M66.777 12.0653C67.5611 15.1431 65.8564 17.8248 62.8226 18.5977C59.9427 19.3314 57.1186 17.8034 56.253 14.9571L59.4188 14.1506C59.8423 15.3537 60.8306 16.1086 62.1277 15.7781C63.2928 15.4813 64.1628 14.3935 63.8492 13.1623C63.3787 11.3157 61.6183 11.3896 60.0494 11.204C59.4933 11.135 58.9649 11.0823 58.4196 10.9637C56.5524 10.5264 55.4633 9.37576 54.9872 7.5071C54.3039 4.82503 55.9159 2.33078 58.576 1.6531C61.2141 0.981018 63.7683 2.46072 64.5723 5.06522L61.4945 5.84931C61.1265 4.7725 60.3481 4.19824 59.205 4.48948C58.2597 4.7303 57.7078 5.59664 57.9542 6.56394C58.3519 8.12482 59.9252 8.05175 61.2351 8.13943C63.9046 8.32557 66.0489 9.20735 66.777 12.0653Z" fill="#D0C3AE"/>
<path d="M92.0055 11.9107L85.7661 10.991L86.1565 8.3426L92.3959 9.26231L92.0055 11.9107Z" fill="#D0C3AE"/>
<path d="M123.571 18.4366C122.796 19.7173 121.722 20.6582 120.215 20.9126C118.315 21.247 117.057 20.5647 115.485 19.6127L114.36 18.9309L111.045 24.4029L108.387 22.7927L117.085 8.43357L120.869 10.7255C122.44 11.6776 123.628 12.4763 124.211 14.3152C124.684 15.7684 124.347 17.1559 123.571 18.4366ZM120.913 16.8264C121.971 15.08 120.567 13.938 119.19 13.1035L118.239 12.5276L115.865 16.4472L116.718 16.9644C118.096 17.7989 119.843 18.5922 120.913 16.8264Z" fill="#D0C3AE"/>
<path d="M127.37 37.4269L124.631 34.8425L125.802 27.1212L125.769 27.0901L121.363 31.7599L119.103 29.627L130.624 17.4162L134.369 20.9502C135.442 21.9622 136.357 23.0751 136.561 24.5777C136.784 26.16 136.3 27.7308 135.21 28.8859C134.229 29.9254 132.71 30.6757 131.283 30.7012C130.095 30.7036 129.315 30.3732 128.303 29.7928L127.37 37.4269ZM132.778 26.9345C133.961 25.6804 133.499 24.1211 132.343 23.0313L130.891 21.6612L127.373 25.3905L128.825 26.7605C130.03 27.897 131.564 28.2215 132.778 26.9345Z" fill="#D0C3AE"/>
<path d="M133.494 45.9666L128.29 38.588L142.009 28.912L147.213 36.2906L144.84 37.9643L141.427 33.1256L138.072 35.4923L141.341 40.127L138.968 41.8007L135.699 37.166L132.454 39.4542L135.867 44.2929L133.494 45.9666Z" fill="#D0C3AE"/>
<path d="M143.874 55.7558C140.973 57.0474 138.042 55.819 136.769 52.9589C135.56 50.2438 136.59 47.2027 139.25 45.8697L140.579 48.8542C139.464 49.4745 138.887 50.5759 139.431 51.7987C139.92 52.8972 141.139 53.5714 142.299 53.0548C144.04 52.2798 143.671 50.557 143.589 48.9792C143.564 48.4195 143.526 47.8897 143.551 47.3323C143.668 45.418 144.618 44.1506 146.38 43.3664C148.909 42.2409 151.639 43.4095 152.755 45.9173C153.862 48.4044 152.834 51.1714 150.403 52.4028L149.111 49.5012C150.11 48.9571 150.545 48.093 150.065 47.0153C149.669 46.1241 148.722 45.7261 147.81 46.132C146.338 46.7871 146.676 48.3256 146.81 49.6316C147.076 52.2942 146.569 54.5565 143.874 55.7558Z" fill="#D0C3AE"/>
<path d="M147.288 68.9836C144.188 69.6737 141.56 67.8881 140.879 64.8322C140.234 61.9313 141.847 59.1551 144.718 58.3765L145.428 61.5653C144.213 61.952 143.428 62.9169 143.719 64.2234C143.98 65.3971 145.041 66.2998 146.281 66.0238C148.141 65.6097 148.121 63.8479 148.354 62.2853C148.44 61.7316 148.509 61.205 148.644 60.6636C149.138 58.8105 150.321 57.757 152.203 57.338C154.905 56.7367 157.349 58.4239 157.945 61.1034C158.537 63.7607 156.98 66.2687 154.352 66.993L153.662 63.8928C154.75 63.5578 155.347 62.7972 155.091 61.6457C154.879 60.6935 154.03 60.1155 153.056 60.3324C151.483 60.6823 151.509 62.2572 151.381 63.5638C151.114 66.2264 150.167 68.3429 147.288 68.9836Z" fill="#D0C3AE"/>
</svg>
